DataType=double
version=3
OpenSimVersion=4.5-2024-01-10-34fd6af
endheader
time	ground_force_2_vx	ground_force_2_vy	ground_force_2_vz	ground_moment_2_mx	ground_moment_2_my	ground_moment_2_mz	ground_force_2_px	ground_force_2_py	ground_force_2_pz	ground_force_1_vx	ground_force_1_vy	ground_force_1_vz	ground_moment_1_mx	ground_moment_1_my	ground_moment_1_mz	ground_force_1_px	ground_force_1_py	ground_force_1_pz
2.76	101.3553317728175	655.0087384703349	-30.22545881440212	14.49977904548707	-1.479946092132614	30.11077837554302	0.5435670517272172	0.05368940578400443	0.5723103070822574	5.262502283726924	69.15399104168188	-7.149648569828209	-0.8007341160513042	-0.7128853780289561	-8.630607921820614	1.09709406604206	0.05368940578400443	0.3897864102563589
2.765	103.2575955995304	641.0485323460855	-29.05520431103555	14.68045666663777	-1.66567845406014	29.34720648559912	0.5388420385217023	0.05368940578400443	0.572324876832529	4.621293103955207	89.68979292230631	-8.173583009899168	-0.9764410306159055	-0.840986959882017	-10.87535268488297	1.094789487691213	0.05368940578400443	0.3905887925783104
2.77	104.6929004185399	625.4975587267043	-27.76513329327916	14.79747883467867	-1.840235991076786	28.50942346433897	0.5342152969558247	0.05368940578400443	0.5723188023440775	3.597430912766375	112.8859217140731	-9.172968891023693	-1.166958495785089	-0.9735360100609745	-13.36865930227983	1.092215291706856	0.05368940578400443	0.3913851354482958
2.775	105.6246209091442	608.3672908958387	-26.3626003841805	14.84609109923483	-2.001147404714754	27.59886051053136	0.5296964752182214	0.05368940578400443	0.5722894127639679	2.123995020096493	138.6830911299171	-10.09768695834434	-1.370232696519304	-1.106119068396359	-16.09339307718505	1.089393278811967	0.05368940578400443	0.3921663434375767
2.78	106.02091913935	589.6908473383291	-24.85702295848303	14.82254377785162	-2.146050400094501	26.61799341579176	0.5252959978169001	0.05368940578400443	0.5722339542445338	0.1430940808859923	166.9535329980872	-10.88727869216004	-1.583644833952666	-1.232987755727138	-19.0240756590597	1.086343752979635	0.05368940578400443	0.392924254341469
2.785	105.855926488253	569.524034322125	-23.25983205232521	14.72423368026046	-2.27276062381526	25.57039579608779	0.5210250705486458	0.05368940578400443	0.5721496424387096	-2.386404260951719	197.5027957574664	-11.47285581687491	-1.804051060945766	-1.347151360507502	-22.1273749434235	1.083085409598356	0.05368940578400443	0.3936517641233454
2.79	105.110867263629	547.9458508448403	-21.58436968475681	14.54981709634204	-2.379339243659129	24.46076311373314	0.5168956763324397	0.05368940578400443	0.5720337247853121	-5.482665483166809	230.0737102605331	-11.78039197845603	-2.027917796994744	-1.440644309296784	-25.3629770893975	1.079635268545822	0.05368940578400443	0.3943429117360782
2.795	103.7750800303127	525.0583912092648	-19.84573109876479	14.29928800809606	-2.464156289396481	23.29490343604966	0.5129205609184674	0.05368940578400443	0.5718835512635217	-9.137364961710734	264.3532384035578	-11.73552688350868	-2.251469126733169	-1.504988368710165	-28.68483756600112	1.076008650352808	0.05368940578400443	0.3949929228454702
2.8	101.8468908864613	500.9860997200246	-18.06055101587841	13.97401691787185	-2.525946938642718	22.07969237248927	0.5091132075009333	0.05368940578400443	0.5716966517736451	-13.31511945094967	299.9819905384763	-11.26944869228144	-2.470763606306599	-1.531805464664853	-32.04272667951632	1.072219192672546	0.05368940578400443	0.3955982132909094
2.805	99.33429247398016	475.8743576119106	-16.24673380412898	13.57674745342209	-2.563858153292526	20.82299136919704	0.5054877993052316	0.05368940578400443	0.5714708178161195	-17.9553763987827	336.5649589715978	-10.32488280885262	-2.6817617808155	-1.513485058836601	-35.38394605642647	1.068278903437357	0.05368940578400443	0.3961563547782261
2.81	96.25538420392246	449.8874131962243	-14.42312891083338	13.11154989235128	-2.577483435644059	19.53353040290798	0.5020591692956445	0.05368940578400443	0.5712041857216691	-22.97629680146487	373.6836918495627	-8.861450374453845	-2.880495692008599	-1.44382617498224	-38.65522775637105	1.064198246408607	0.05368940578400443	0.396666006745544
2.815	92.63853385514068	423.2056997692893	-12.60915527929438	12.58373281662896	-2.566883959644166	18.2207579796567	0.4988427362662308	0.05368940578400443	0.5708953183608638	-28.28023128588542	410.910972331888	-6.859963279759636	-3.063306823396569	-1.318580400997045	-41.80481247310307	1.059986254320917	0.05368940578400443	0.3971268195247571
2.82	88.52222895395846	396.0226187282361	-10.82438175441695	11.99971613063618	-2.532594917631062	16.89466307750186	0.4958544267418583	0.05368940578400443	0.5705432820568613	-33.75987009737317	447.8257892377386	-4.32497743851382	-3.22702185578567	-1.13580119079693	-44.78441420737619	1.055650664486581	0.05368940578400443	0.3975393148019513
2.825	83.95459818637711	368.5408940987897	-9.088074366855176	11.36687051515609	-2.475616574687071	15.5655751510393	0.4931105823338864	0.05368940578400443	0.5701477153622208	-39.30415338506683	484.0257006525671	-1.285049820005177	-3.369022119717405	-0.8959455209346829	-47.55074767086827	1.051198071551597	0.05368940578400443	0.3979047499356829
2.83	78.99259780778776	340.9686261328064	-7.418725273428166	10.69332990224732	-2.397390199405695	14.24394943680439	0.4906278524690002	0.05368940578400443	0.5697088864544897	-44.80378812363368	519.137631481978	2.209164573235366	-3.487244111291359	-0.6017571231209551	-50.06660210810161	1.046634092063508	0.05368940578400443	0.3982249729129288
2.835	73.7008742506097	313.5151835976799	-5.833581332161554	9.987784613330753	-2.299759691910335	12.94014549871307	0.4884230727402607	0.05368940578400443	0.5692277361631021	-50.15633750096921	552.8285951130315	6.088583715206914	-3.580119442624133	-0.2579898025947471	-52.30152425200289	1.04196353560254	0.05368940578400443	0.3985022746148045
2.84	68.15033032044552	286.3870763646156	-4.348192271316719	9.259263325582523	-2.184920310020785	11.66420720767056	0.486513129512901	0.05368940578400443	0.5687059040602757	-55.27041564494233	584.8146085357437	10.27079922794594	-3.646449305652215	0.1289774299505613	-54.23204839160331	1.037190577420589	0.05368940578400443	0.3987392446501681
2.845	62.41643722708866	259.783943261568	-2.975998973902374	8.51691202921317	-2.055356373832279	10.42565216885977	0.4849148118459046	0.05368940578400443	0.5681457356196858	-60.06859154208031	614.8655591389715	14.6659887924663	-3.685266120156716	0.5515717083517224	-55.84147862145175	1.032318927809905	0.05368940578400443	0.398938636333209
2.85	56.57734757392623	233.8947775104285	-1.727981649922269	7.769777716635621	-1.913770208837586	9.233278030570538	0.483644652251659	0.05368940578400443	0.5675502691476084	-64.48897183909371	642.8055589910207	19.18276494583885	-3.695751867105892	1.001442329537981	-57.11935841515943	1.027351993772	0.05368940578400443	0.3991032454833633
2.855	50.71187537966552	208.8944963086798	-0.6123858476700867	7.02660385710511	-1.763004892515678	8.094992188424685	0.4827187582934755	0.05368940578400443	0.5669232019918703	-68.48560532892027	668.5094947364876	23.73324083425432	-3.677225318569051	1.469826389297314	-58.0607527235138	1.022293028970662	0.05368940578400443	0.3992358066745559
2.86	44.89741867843184	184.9409443514845	0.3654584302734527	6.295643878036136	-1.605963625076119	7.017670209793941	0.4821526374943728	0.05368940578400443	0.5662688363965677	-72.02791644623304	691.8969762550541	28.23692704760583	-3.629174065752686	1.94785187970827	-58.66542692043173	1.017145268427502	0.05368940578400443	0.3993389094225266
2.865	39.20790860315017	162.1724039817508	1.203212724683119	5.584497939933597	-1.44552876159674	6.00704691811095	0.4819610184774222	0.05368940578400443	0.5655920062518074	-75.09942826699758	712.9250581557694	32.62334602641462	-3.551316799686703	2.42677400204675	-58.9369982520919	1.011912044952795	0.05368940578400443	0.3994149356399855
2.87	33.71187579115194	140.705666656957	1.90149396709154	4.89997723833421	-1.284483707996727	5.06764256889536	0.4821576716540225	0.05368940578400443	0.5648979868414145	-77.69607645862416	731.5811187139877	36.83344374838657	-3.443686862501523	2.898145959027659	-58.88211749383605	1.006596884897197	0.05368940578400443	0.3994660185704228
2.875	28.47072853921764	120.6347008696453	2.463725103024153	4.247998867371028	-1.125440953118545	4.202725000856864	0.4827552330977988	0.05368940578400443	0.5641923904712942	-79.82440049420077	747.877047915347	40.81997975968005	-3.306718224049065	3.353933706441154	-58.5097226602367	1.00120358145842	0.05368940578400443	0.3994940223839448
2.88	23.53733316587988	102.0299307209015	2.895879762972829	3.633512941543023	-0.9707793881239776	3.414307149858766	0.4837650354663863	0.05368940578400443	0.5634810515236283	-81.49978976343401	761.8451914344953	44.54708690298243	-3.141308079358077	3.786591781435666	-57.83040965383288	0.9957362444750412	0.05368940578400443	0.3995005407229555
2.885	18.95497077260464	84.93811798843137	3.206137816030061	3.060462246006503	-0.8225936256815961	2.703177959514072	0.4851969499426607	0.05368940578400443	0.5627699049899226	-82.74485056918182	773.5357840849767	47.98919316575776	-2.948834989315	4.189120070472818	-56.85596140678295	0.9901993263763753	0.05368940578400443	0.3994869117523749
2.89	14.75671531679075	69.38281996840414	3.404476697734761	2.531773268305028	-0.6826572183309525	2.068963571727786	0.4870592431473946	0.05368940578400443	0.5620648628601574	-83.58791843406829	783.0153439273274	51.12953793054422	-2.731125653393563	4.555118059790912	-55.59905287557507	0.9845976247158383	0.05368940578400443	0.3994542467185754
2.895	10.96524152820571	55.36537677094537	3.50222725010952	2.049376188550291	-0.5524005982394566	1.510214762102348	0.4893584528191889	0.05368940578400443	0.5613716928673594	-84.061720367456	790.3654928660612	53.95854322297563	-2.490379173572313	4.878846275479833	-54.07312031494592	0.9789362624742535	0.05368940578400443	0.3994034686633349
2.9	7.593036853906006	42.86636609236808	3.511621910333414	1.614250396920059	-0.4329034551326443	1.02451590604349	0.492099285763704	0.05368940578400443	0.5606959039998005	-84.20215840399013	795.6817234345555	56.4722645155603	-2.229067674987929	5.155297322608959	-52.29236579820856	0.9732206480539439	0.05368940578400443	0.399335357775881
